<svg id="Слой_2" data-name="Слой 2" xmlns="http://www.w3.org/2000/svg" viewBox="0 0 408 410"><defs><style>.cls-1{fill:#fff;}</style></defs><title>6</title><path class="cls-1" d="M217.67,410h-192A25.69,25.69,0,0,1,0,384.33V25.67A25.69,25.69,0,0,1,25.67,0h192a25.69,25.69,0,0,1,25.66,25.67V384.33A25.69,25.69,0,0,1,217.67,410ZM25.67,16A9.68,9.68,0,0,0,16,25.67V384.33A9.68,9.68,0,0,0,25.67,394h192a9.68,9.68,0,0,0,9.66-9.67V25.67A9.68,9.68,0,0,0,217.67,16Z"/><path class="cls-1" d="M144.83,43.5H66a8,8,0,0,1,0-16h78.83a8,8,0,0,1,0,16Z"/><path class="cls-1" d="M235.33,70.83H8a8,8,0,0,1,0-16H235.33a8,8,0,0,1,0,16Z"/><path class="cls-1" d="M235.33,344.58H8a8,8,0,0,1,0-16H235.33a8,8,0,0,1,0,16Z"/><path class="cls-1" d="M136.79,377.58H105.54a8,8,0,0,1,0-16h31.25a8,8,0,1,1,0,16Z"/><path class="cls-1" d="M114.2,227.64a8,8,0,0,1-4.22-7.06V198.79H43a8,8,0,0,1-8-8V144.37a8,8,0,0,1,8-8h67v-23a8,8,0,0,1,12.46-6.64l80.19,53.88a8,8,0,0,1,0,13.3l-80.19,53.37a8,8,0,0,1-8.21.4ZM126,128.35v16a8,8,0,0,1-8,8H51v30.42h59V172.42a8,8,0,0,1,16,0v33.23l57.79-38.47Z"/><path class="cls-1" d="M194,307.17H47.67A12.69,12.69,0,0,1,35,294.5v-42a12.69,12.69,0,0,1,12.67-12.67H194a12.69,12.69,0,0,1,12.67,12.67v42A12.69,12.69,0,0,1,194,307.17Zm-143-16H190.67V255.83H51Z"/><path class="cls-1" d="M397,307.17H235.33a8,8,0,1,1,0-16H392V107H235.33a8,8,0,0,1,0-16H397a11,11,0,0,1,11,11V296.17A11,11,0,0,1,397,307.17ZM397,107h0Z"/><path class="cls-1" d="M400,280.33H236.67a8,8,0,0,1,0-16H400a8,8,0,0,1,0,16Z"/><path class="cls-1" d="M400,255.83H238.67a8,8,0,0,1,0-16H400a8,8,0,0,1,0,16Z"/><path class="cls-1" d="M253.33,219.17a45,45,0,0,1-20.43-4.84A8,8,0,1,1,240.09,200a29.5,29.5,0,1,0,.16-52.82,8,8,0,0,1-7.11-14.34,45,45,0,0,1,20.19-4.71,45.5,45.5,0,0,1,0,91Z"/><path class="cls-1" d="M253.33,248a74.65,74.65,0,0,1-16.42-1.82,8,8,0,1,1,3.52-15.61,58.34,58.34,0,1,0,0-113.81,8,8,0,1,1-3.53-15.6A74.34,74.34,0,1,1,253.33,248Z"/><path class="cls-1" d="M353.29,249.82a8.27,8.27,0,0,1-.86,0,8,8,0,0,1-7.11-8.8,56.17,56.17,0,0,1,49.31-49.54,8,8,0,1,1,1.77,15.9,40.06,40.06,0,0,0-35.17,35.34A8,8,0,0,1,353.29,249.82Z"/><path class="cls-1" d="M397.34,155.7c-.19,0-.39,0-.59,0a55.88,55.88,0,0,1-51.55-51,8,8,0,1,1,15.95-1.35,40.14,40.14,0,0,0,36.77,36.36,8,8,0,0,1-.58,16Z"/><circle class="cls-1" cx="176.25" cy="35.5" r="8.08"/></svg>