<svg id="Слой_2" data-name="Слой 2" xmlns="http://www.w3.org/2000/svg" viewBox="0 0 408.65 409.5"><defs><style>.cls-1{fill:#fff;}</style></defs><title>4</title><path class="cls-1" d="M312.25,409.5H25.75A25.78,25.78,0,0,1,0,383.75v-358A25.78,25.78,0,0,1,25.75,0h286.5A25.78,25.78,0,0,1,338,25.75V118a8,8,0,0,1-16,0V25.75A9.76,9.76,0,0,0,312.25,16H25.75A9.76,9.76,0,0,0,16,25.75v358a9.76,9.76,0,0,0,9.75,9.75h286.5a9.76,9.76,0,0,0,9.75-9.75V320a8,8,0,0,1,16,0v63.75A25.78,25.78,0,0,1,312.25,409.5Z"/><path class="cls-1" d="M212,231.67H98.75a8,8,0,1,1,0-16H212a8,8,0,0,1,0,16Z"/><path class="cls-1" d="M212,276.67H98.75a8,8,0,0,1,0-16H212a8,8,0,0,1,0,16Z"/><path class="cls-1" d="M212,320.67H98.75a8,8,0,0,1,0-16H212a8,8,0,1,1,0,16Z"/><path class="cls-1" d="M212,365.67H169a8,8,0,0,1,0-16h43a8,8,0,1,1,0,16Z"/><path class="cls-1" d="M169,189.17A73.17,73.17,0,1,1,242.17,116,73.26,73.26,0,0,1,169,189.17Zm0-130.34A57.17,57.17,0,1,0,226.17,116,57.24,57.24,0,0,0,169,58.83Z"/><path class="cls-1" d="M212,169.7a8,8,0,0,1-7.27-4.66,39.36,39.36,0,0,0-71.42-.13,8,8,0,1,1-14.5-6.76,55.36,55.36,0,0,1,100.45.19A8,8,0,0,1,212,169.7Z"/><path class="cls-1" d="M169.19,142.17a28.85,28.85,0,0,1-28.81-28.82v-6.16a28.81,28.81,0,0,1,57.62,0v6.16A28.85,28.85,0,0,1,169.19,142.17Zm0-47.79a12.82,12.82,0,0,0-12.81,12.81v6.16a12.81,12.81,0,1,0,25.62,0v-6.16A12.82,12.82,0,0,0,169.19,94.38Z"/><path class="cls-1" d="M247.17,361.5a8,8,0,0,1-7.95-8.91L246,293.47a8.06,8.06,0,0,1,1-3.1L347.15,117.48a33,33,0,0,1,57,33L304.08,323.34a8,8,0,0,1-2.41,2.6l-50,34.16A8,8,0,0,1,247.17,361.5Zm14.51-64.56L257.1,337l34-23.27L390.35,142.5a17,17,0,1,0-29.35-17Zm35.47,22.39h0Z"/><path class="cls-1" d="M297.15,327.34a8,8,0,0,1-4-1.08l-43.23-25a8,8,0,0,1,8-13.85l43.23,25a8,8,0,0,1-4,14.93Z"/><path class="cls-1" d="M385.2,175.33a8,8,0,0,1-4.16-1.17L339,148.48a8,8,0,1,1,8.34-13.66l42.07,25.68a8,8,0,0,1-4.18,14.83Z"/><circle class="cls-1" cx="64.67" cy="223.68" r="8.49"/><circle class="cls-1" cx="64.67" cy="268.68" r="8.49"/><circle class="cls-1" cx="64.67" cy="312.68" r="8.49"/></svg>