<svg id="Capa_1" data-name="Capa 1" xmlns="http://www.w3.org/2000/svg" viewBox="0 0 512 512"><defs><style>.cls-1{fill:#3e4151;}.cls-2{fill:#fff;}</style></defs><title>3</title><path class="cls-1" d="M256,0C114.84,0,0,114.84,0,256S114.84,512,256,512,512,397.16,512,256,397.16,0,256,0Z"/><path class="cls-2" d="M93.87,145.07h17.06a110.79,110.79,0,0,1,74,28.23A8.54,8.54,0,0,1,173.53,186a93.78,93.78,0,0,0-62.6-23.89H93.87a8.53,8.53,0,1,1,0-17.06Zm226.88,288.5a8.53,8.53,0,1,1-10-13.8l72.64-52.84H315.73a110.87,110.87,0,0,1-73.39-27.71,8.53,8.53,0,0,1,11.28-12.8,93.82,93.82,0,0,0,62.11,23.45h67.63L310.72,297a8.53,8.53,0,1,1,10-13.8L424.11,358.4Zm0-204.8a8.53,8.53,0,1,1-10-13.8l72.64-52.84H315.73A94,94,0,0,0,221.87,256,111.06,111.06,0,0,1,110.93,366.93H93.87a8.53,8.53,0,1,1,0-17.06h17.06A94,94,0,0,0,204.8,256,111.06,111.06,0,0,1,315.73,145.07h67.63L310.72,92.24a8.53,8.53,0,1,1,10-13.8L424.11,153.6Z"/></svg>