<?xml version="1.0" encoding="UTF-8"?> <svg xmlns="http://www.w3.org/2000/svg" id="Layer_1" data-name="Layer 1" viewBox="0 0 86.93 19.68"> <defs> <style>.cls-1{fill:#fff;}.cls-2{fill:#202143;}</style> </defs> <title>e</title> <path class="cls-1" d="M100.24,70.7a4.23,4.23,0,0,1,4.25-4.34,4.34,4.34,0,0,1,3.25,1.36l-.62.67a3.66,3.66,0,0,0-2.64-1.15,3.47,3.47,0,0,0,0,6.93A3.65,3.65,0,0,0,107.19,73l.62.66a4.32,4.32,0,0,1-3.36,1.43A4.2,4.2,0,0,1,100.24,70.7Z" transform="translate(-82.47 -66.36)"></path> <path class="cls-1" d="M109.47,66.51h1v3.73h4.84V66.51h.95V74.9h-.95V71.12h-4.84V74.9h-1Z" transform="translate(-82.47 -66.36)"></path> <path class="cls-1" d="M121.7,66.45h.88l3.83,8.45h-1l-1-2.22h-4.57l-1,2.22h-1ZM124,71.83l-1.9-4.28-1.92,4.28Z" transform="translate(-82.47 -66.36)"></path> <path class="cls-1" d="M129.21,67.38h-2.82v-.87H133v.87h-2.82V74.9h-1Z" transform="translate(-82.47 -66.36)"></path> <path class="cls-1" d="M138,70.84h9.21v.92H138Z" transform="translate(-82.47 -66.36)"></path> <path class="cls-2" d="M100.43,77.51h6.34v1.64h-4.5v1.7h4V82.5h-4v1.76h4.56V85.9h-6.4Z" transform="translate(-82.47 -66.36)"></path> <path class="cls-2" d="M110.77,81.63,108,77.51h2.16l1.76,2.72,1.78-2.72h2.09l-2.8,4.1,2.92,4.29h-2.15L111.83,83l-1.89,2.88h-2.1Z" transform="translate(-82.47 -66.36)"></path> <path class="cls-2" d="M116.29,81.7a4.27,4.27,0,0,1,4.37-4.34,4.19,4.19,0,0,1,3.25,1.37L122.81,80a2.9,2.9,0,0,0-2.16-.93,2.64,2.64,0,0,0,0,5.27,3,3,0,0,0,2.21-1L124,84.62a4.46,4.46,0,0,1-7.74-2.92Z" transform="translate(-82.47 -66.36)"></path> <path class="cls-2" d="M125.51,77.51h1.85v3.32h3.41V77.51h1.85V85.9h-1.85V82.53h-3.41V85.9h-1.85Z" transform="translate(-82.47 -66.36)"></path> <path class="cls-2" d="M137.51,77.45h1.71l3.59,8.45h-1.93L140.12,84h-3.55l-.77,1.88h-1.89Zm2,4.94-1.12-2.72-1.11,2.72Z" transform="translate(-82.47 -66.36)"></path> <path class="cls-2" d="M144.12,77.51h1.7l3.93,5.17V77.51h1.83V85.9H150l-4.06-5.33V85.9h-1.82Z" transform="translate(-82.47 -66.36)"></path> <path class="cls-2" d="M153.22,81.7a4.31,4.31,0,0,1,4.4-4.34,4.57,4.57,0,0,1,3.3,1.16l-1.16,1.4a3.08,3.08,0,0,0-2.19-.85,2.66,2.66,0,0,0,.13,5.3,2.93,2.93,0,0,0,1.74-.51v-1.2h-1.86V81.07h3.64v3.65a5.44,5.44,0,0,1-3.58,1.33A4.21,4.21,0,0,1,153.22,81.7Z" transform="translate(-82.47 -66.36)"></path> <path class="cls-2" d="M163,77.51h6.33v1.64h-4.49v1.7h3.95V82.5h-3.95v1.76h4.56V85.9H163Z" transform="translate(-82.47 -66.36)"></path> <rect class="cls-2" y="3.61" width="9.2" height="2.39"></rect> <polygon class="cls-2" points="2.67 10.86 8.42 10.86 8.42 8.48 2.67 8.48 2.67 8.48 0 8.48 0 15.81 9.29 15.81 9.29 13.43 2.67 13.43 2.67 10.86"></polygon> </svg> 