<svg width="20" height="20" viewBox="0 0 24 24" fill="none" xmlns="http://www.w3.org/2000/svg">
<path d="M14.6459 8.58266C14.6179 8.27082 14.5176 7.96927 14.3526 7.70079C14.1876 7.43221 13.9622 7.20372 13.6933 7.03235C13.0643 6.64487 12.3294 6.45242 11.5857 6.48034C11.0475 6.46806 10.5124 6.56261 10.0129 6.75833C9.6062 6.91652 9.25097 7.17887 8.98485 7.51774C8.74331 7.83335 8.61498 8.21746 8.61965 8.61117C8.61142 8.92381 8.6981 9.23179 8.8687 9.49671C9.03829 9.74856 9.26255 9.96111 9.52562 10.1193C9.8019 10.2878 10.096 10.4269 10.4028 10.5341C10.6986 10.6392 10.9996 10.7294 11.3048 10.8048L12.7476 11.1703C13.2415 11.2898 13.7263 11.4425 14.1983 11.6275C14.6911 11.8182 15.1548 12.0736 15.5767 12.3865C16.0001 12.7008 16.3508 13.0986 16.6057 13.5539C16.8799 14.0678 17.0151 14.6412 16.9987 15.2201C17.0121 15.9911 16.787 16.7482 16.3527 17.3929C15.8871 18.0541 15.2389 18.5733 14.4832 18.8904C13.5503 19.2787 12.5422 19.4657 11.5281 19.4386C10.5449 19.4613 9.56738 19.2867 8.65633 18.9258C7.89638 18.6214 7.23895 18.116 6.75812 17.4669C6.2899 16.8041 6.02683 16.0243 6 15.22H8.23759C8.26239 15.6964 8.446 16.1519 8.76059 16.5175C9.07691 16.8692 9.48284 17.1334 9.93735 17.2836C10.4443 17.4549 10.9778 17.5394 11.5142 17.5336C12.0899 17.5433 12.6621 17.4441 13.1991 17.2415C13.6541 17.0739 14.0559 16.7927 14.3641 16.4261C14.6477 16.0776 14.7982 15.6439 14.7897 15.1992C14.8061 14.8169 14.6735 14.4426 14.4186 14.1513C14.1386 13.8579 13.7963 13.6276 13.4154 13.4764C12.9532 13.2849 12.4769 13.1273 11.9905 13.0051L10.244 12.5411C9.20809 12.3015 8.24491 11.827 7.43283 11.1562C7.08958 10.8509 6.81899 10.4763 6.64005 10.0584C6.46111 9.64066 6.3781 9.18972 6.3969 8.7373C6.38054 7.95927 6.62359 7.19699 7.08958 6.56498C7.57254 5.92985 8.22011 5.43123 8.96594 5.12009C9.80831 4.76492 10.7186 4.58875 11.6363 4.60332C12.5481 4.58572 13.4529 4.76069 14.2887 5.1162C15.0103 5.42274 15.6362 5.90911 16.1036 6.52637C16.547 7.12561 16.7889 7.84394 16.7962 8.58266H14.6459ZM10.8355 21L10.893 3H12.2495L12.192 21H10.8355Z" fill="black"/>
</svg>
