<svg width="20" height="20" viewBox="0 0 24 24" fill="none" xmlns="http://www.w3.org/2000/svg">
<path d="M13.4073 13.9531H5V11.6507H13.3756C13.9922 11.6751 14.6053 11.538 15.1649 11.2509C15.6111 11.0122 15.9783 10.625 16.2149 10.1436C16.4501 9.64028 16.5678 9.08007 16.5571 8.51367C16.5662 7.94604 16.4486 7.38459 16.2149 6.87894C15.9807 6.3916 15.6174 5.9947 15.1737 5.74145C14.6252 5.44278 14.0183 5.29939 13.4073 5.32401H9.93922V21H7.48932V3.0042H13.4073C14.4795 2.96365 15.544 3.21728 16.5057 3.74242C17.2917 4.18744 17.9417 4.878 18.3749 5.72821C18.7953 6.57916 19.0103 7.53528 18.9994 8.50464C19.0128 9.47684 18.7948 10.4359 18.3673 11.2859C17.9289 12.1262 17.2756 12.8048 16.4894 13.2365C15.5292 13.746 14.4719 13.9918 13.4073 13.9531ZM13.5265 15.464V17.7752H5V15.464H13.5265Z" fill="black"/>
</svg>
