<svg id="Слой_1" data-name="Слой 1" xmlns="http://www.w3.org/2000/svg" viewBox="0 0 626 626"><defs><style>.cls-1{fill:#fff;}.cls-2{fill:#26a17b;}</style></defs><title>l2</title><circle class="cls-1" cx="313" cy="313" r="313"/><circle class="cls-2" cx="313" cy="313" r="256.56"/><polygon class="cls-1" points="345.07 245.01 432.3 245.01 432.3 186 193.7 186 193.7 245.01 280.93 245.01 280.93 329.68 345.07 329.68 345.07 245.01"/><rect class="cls-1" x="280.93" y="352.77" width="64.14" height="120.58"/><path class="cls-1" d="M311.72,283.5c-86.44,0-156.5,16.08-156.5,35.91s70.06,35.92,156.5,35.92,156.5-16.08,156.5-35.92S398.15,283.5,311.72,283.5Zm0,55.77c-76.52,0-138.54-11.91-138.54-26.61s62-26.6,138.54-26.6S450.26,298,450.26,312.66,388.23,339.27,311.72,339.27Z"/></svg>